# Made in Blockbench 4.7.4
mtllib highball.mtl

o tube
v 0.03349364905389033 0 0.12499999999999999
v 0.03851769641197388 0.5625 0.14375
v 0.03024702951659001 0.5625 0.11288345093394941
v 0.10523230358802607 0.5625 0.10523230358802613
v 0.08263642141735938 0.5625 0.08263642141735941
v 0.14375 0.5625 0.03851769641197388
v 0.11288345093394941 0.5625 0.03024702951659001
v 0.12499999999999999 0 -0.033493649053890344
v 0.14375 0.5625 -0.0385176964119739
v 0.11288345093394941 0.5625 -0.030247029516590015
v 0.09150635094610966 0 -0.09150635094610965
v 0.10523230358802613 0.5625 -0.1052323035880261
v 0.08263642141735941 0.5625 -0.08263642141735938
v 0.03349364905389037 0 -0.12499999999999997
v 0.038517696411973924 0.5625 -0.14374999999999996
v 0.030247029516590043 0.5625 -0.11288345093394939
v -0.03349364905389028 0 -0.125
v -0.03851769641197382 0.5625 -0.14375
v -0.03024702951658996 0.5625 -0.11288345093394941
v -0.09150635094610965 0 -0.09150635094610968
v -0.1052323035880261 0.5625 -0.10523230358802613
v -0.08263642141735938 0.5625 -0.08263642141735944
v -0.12499999999999999 0 -0.033493649053890316
v -0.14374999999999996 0.5625 -0.038517696411973855
v -0.11288345093394941 0.5625 -0.03024702951658999
v -0.125 0 0.033493649053890275
v -0.14375 0.5625 0.03851769641197382
v -0.11288345093394941 0.5625 0.03024702951658996
v -0.09150635094610968 0 0.09150635094610964
v -0.10523230358802613 0.5625 0.10523230358802607
v -0.08263642141735944 0.5625 0.08263642141735938
v -0.03349364905389032 0 0.12499999999999999
v -0.03851769641197387 0.5625 0.14375
v -0.030247029516589998 0.5625 0.11288345093394941
v -0.02630176479703475 0.10624999999999996 -0.09815952255126038
v 0.02630176479703482 0.10624999999999996 -0.09815952255126036
v 0.07185775775422558 0.10624999999999996 -0.07185775775422557
v 0.09815952255126037 0.10624999999999996 -0.0263017647970348
v 0.09815952255126037 0.10624999999999996 0.02630176479703479
v 0.07185775775422557 0.10624999999999996 0.07185775775422558
v 0.02630176479703479 0.10624999999999996 0.09815952255126037
v -0.026301764797034784 0.10624999999999996 0.09815952255126037
v -0.07185775775422559 0.10624999999999996 0.07185775775422555
v -0.09815952255126038 0.10624999999999996 0.026301764797034746
v -0.09815952255126037 0.10624999999999996 -0.02630176479703478
v -0.07185775775422557 0.10624999999999996 -0.07185775775422559
v -1.3877787807814457e-17 0.10624999999999996 0
v 0.09150635094610965 0 0.09150635094610966
v 0.12499999999999999 0 0.03349364905389033
v 0 0 -1.3877787807814457e-17
v -0.028274397156812354 0.459375 -0.10552148674260489
v 0.02827439715681243 0.459375 -0.10552148674260486
v 0.07724708958579249 0.459375 -0.07724708958579247
v 0.10552148674260489 0.459375 -0.02827439715681241
v 0.10552148674260489 0.459375 0.0282743971568124
v 0.07724708958579247 0.459375 0.07724708958579249
v 0.0282743971568124 0.459375 0.10552148674260489
v -0.02827439715681239 0.459375 0.10552148674260489
v -0.07724708958579252 0.459375 0.07724708958579246
v -0.10552148674260489 0.459375 0.028274397156812354
v -0.10552148674260489 0.459375 -0.028274397156812386
v -0.07724708958579247 0.459375 -0.07724708958579252
v 0 0.459375 6.938893903907228e-18
vt 0.27649375 0.4375
vt 0.3099875 0.4375
vt 0.3125 0.71875
vt 0.27398125 0.71875
vt 0.6369914763062356 0.6875
vt 0.6755085236937644 0.6875
vt 0.6713739743041559 0.71875
vt 0.6411285839177986 0.71875
vt 0.15149375 0.4375
vt 0.1849875 0.4375
vt 0.1875 0.71875
vt 0.14898125 0.71875
vt 0.2619914763062357 0.34375
vt 0.3005085236937643 0.34375
vt 0.2963714160822014 0.375
vt 0.26612602569584415 0.375
vt 0.139503125 0.71875
vt 0.172996875 0.71875
vt 0.175509375 1
vt 0.136990625 1
vt 0.21875 0.33648124999999995
vt 0.21875 0.375
vt 0.1875 0.370865625
vt 0.1875 0.340615625
vt 0.0650125 0.4375
vt 0.09850625 0.4375
vt 0.10101874999999999 0.71875
vt 0.0625 0.71875
vt 0.34375 0.3364829526124714
vt 0.34375 0.375
vt 0.3125 0.37086545061039156
vt 0.3125 0.34062006022403435
vt 0.3150125 0.4375
vt 0.34850625 0.4375
vt 0.35101875 0.71875
vt 0.3125 0.71875
vt 0.65625 0.6489829526124714
vt 0.65625 0.6875
vt 0.625 0.6833628923884371
vt 0.625 0.6531175020020799
vt 0.077003125 0.71875
vt 0.11049687500000001 0.71875
vt 0.113009375 1
vt 0.074490625 1
vt 0.675509375 0.8125
vt 0.636990625 0.8125
vt 0.641125 0.78125
vt 0.671375 0.78125
vt 0.21399375 0.4375
vt 0.2474875 0.4375
vt 0.25 0.71875
vt 0.21148125 0.71875
vt 0.3942585236937643 0.375
vt 0.3557414763062357 0.375
vt 0.3598760256958441 0.34375
vt 0.39012141608220136 0.34375
vt 0.02649375 0.4375
vt 0.059987500000000006 0.4375
vt 0.0625 0.71875
vt 0.023981250000000003 0.71875
vt 0.6755085236937644 0.625
vt 0.6369914763062356 0.625
vt 0.6411285839177986 0.59375
vt 0.6713739743041559 0.59375
vt 0.202003125 0.71875
vt 0.235496875 0.71875
vt 0.238009375 1
vt 0.199490625 1
vt 0.21875 0.375
vt 0.21875 0.33648124999999995
vt 0.25 0.340615625
vt 0.25 0.370865625
vt 0.2525125 0.71875
vt 0.28600625 0.71875
vt 0.28851875 1
vt 0.25 1
vt 0.40625 0.375
vt 0.40625 0.3364829526124714
vt 0.4375 0.34061750200207985
vt 0.4375 0.37086289238843706
vt 0.3150125 0.71875
vt 0.34850625 0.71875
vt 0.35101875 1
vt 0.3125 1
vt 0.4375 0.375
vt 0.4375 0.3364829526124714
vt 0.46875 0.34062006022403435
vt 0.46875 0.37086545061039156
vt 0.014503124999999999 0.71875
vt 0.04799687500000001 0.71875
vt 0.050509374999999995 1
vt 0.011990625000000001 1
vt 0.636990625 0.75
vt 0.675509375 0.75
vt 0.671375 0.78125
vt 0.641125 0.78125
vt 0.403775 0.625
vt 0.4047625 0.8125
vt 0.3764875 0.8125
vt 0.377475 0.625
vt 0.4960375 0.625
vt 0.497025 0.8125
vt 0.46875 0.8125
vt 0.4697375 0.625
vt 0.4647875 0.8125
vt 0.465775 1
vt 0.4375 1
vt 0.4384875 0.8125
vt 0.435025 0.8125
vt 0.4360125 1
vt 0.4077375 1
vt 0.408725 0.8125
vt 0.46776249999999997 0.625
vt 0.46875 0.8125
vt 0.440475 0.8125
vt 0.4414625 0.625
vt 0.49901249999999997 0.8125
vt 0.5 1
vt 0.471725 1
vt 0.4727125 0.8125
vt 0.403775 0.8125
vt 0.4047625 1
vt 0.3764875 1
vt 0.377475 0.8125
vt 0.4960375 0.4375
vt 0.497025 0.625
vt 0.46875 0.625
vt 0.4697375 0.4375
vt 0.4335375 0.625
vt 0.434525 0.8125
vt 0.40625 0.8125
vt 0.4072375 0.625
vt 0.403775 0.4375
vt 0.4047625 0.625
vt 0.3764875 0.625
vt 0.377475 0.4375
vt 0.43651249999999997 0.4375
vt 0.4375 0.625
vt 0.409225 0.625
vt 0.4102125 0.4375
vt 0.46776249999999997 0.4375
vt 0.46875 0.625
vt 0.440475 0.625
vt 0.4414625 0.4375
vt 0.09959384129013941 0.34375
vt 0.15040615870986057 0.34375
vt 0.14359983659029965 0.36915401502134604
vt 0.5341719537017691 0.38775216802626045
vt 0.5595780462982309 0.34375
vt 0.5595780462982309 0.39456231741972114
vt 0.6504061587098606 0.46875
vt 0.5995938412901394 0.46875
vt 0.6064039906836002 0.44334390740353813
vt 0.6816561587098606 0.880845984978654
vt 0.6376501634097004 0.90625
vt 0.6308438412901394 0.880845984978654
vt 0.028328615265754573 0.32418995835436415
vt 0.028328615265754566 0.375
vt 0.002921384734245429 0.36819409723107954
vt 0.5908280462982309 0.35543768258027886
vt 0.5908280462982309 0.40625
vt 0.5654219537017691 0.3994398506065392
vt 0.15917299248932698 0.32418768258027886
vt 0.18457700751067302 0.3681936778804391
vt 0.15917299248932698 0.375
vt 0.09082861526575456 0.3125
vt 0.09082861526575456 0.36331004164563585
vt 0.06542138473424543 0.31930590276892046
vt 0.05957861526575457 0.31930590276892046
vt 0.03417138473424543 0.36331004164563585
vt 0.034171384734245434 0.3125
vt 0.6308438412901394 0.875
vt 0.6748498365902996 0.849595984978654
vt 0.6816561587098606 0.875
vt 0.6279213847342454 0.96875
vt 0.6279213847342454 0.9179399583543641
vt 0.6533286152657546 0.9247458611232846
vt 0.5966719537017691 0.4375
vt 0.5966719537017691 0.38668768258027886
vt 0.6220780462982309 0.39349783197373955
vt 0.5145226550520242 0.625
vt 0.5792273449479758 0.625
vt 0.5231913422476331 0.6573523449479758
vt 0.515073764193726 0.7435359295704542
vt 0.547426235806274 0.6875
vt 0.547426235806274 0.7522047743390364
vt 0.5474261724739878 0.53125
vt 0.5474261724739878 0.5959546898959516
vt 0.5150738275260122 0.5872860027003427
vt 0.5474261513632442 0.4375
vt 0.5474261513632442 0.5022047743390364
vt 0.5150738486367558 0.4935359295704542
vt 0.515073764193726 0.90625
vt 0.547426235806274 0.9622859295704542
vt 0.515073764193726 0.9709547743390364
vt 0.5457726550520242 0.65625
vt 0.6104773449479758 0.65625
vt 0.6018086577523669 0.6886023449479758
vt 0.5145226128304818 0.40625
vt 0.5792273871695182 0.40625
vt 0.570558542400936 0.43860230272648837
vt 0.5792273871695182 0.90625
vt 0.5145226128304818 0.90625
vt 0.570558542400936 0.8738975283874519
vt 0.07055854240093598 0.4375
vt 0.014522612830481792 0.40514769727351163
vt 0.07922738716951822 0.40514769727351163
vt 0.5775738486367558 0.9709547743390364
vt 0.5775738486367558 0.90625
vt 0.6099261513632442 0.9149188447685822
vt 0.547426235806274 0.8459547743390364
vt 0.515073764193726 0.7899188447685823
vt 0.547426235806274 0.78125
vt 0.17297734494797576 0.4073523449479758
vt 0.10827265505202424 0.4073523449479758
vt 0.11694134224763308 0.375
vt 0.18800275895538526 0.4375
vt 0.18800275895538526 0.38579681880858296
vt 0.21627260130490472 0.38525678313076595
vt 0.21824724104461474 0.4369222429972073
vt 0.5625 0.625
vt 0.5625 0.573296818808583
vt 0.5907698423495195 0.572756783130766
vt 0.5927444820892295 0.6244222429972073
vt 0.3125 0.4375
vt 0.3125 0.38579681880858296
vt 0.34076984234951946 0.38525678313076595
vt 0.3427444820892295 0.4369222429972073
vt 0.21925275895538526 0.4375
vt 0.21925275895538526 0.38579681880858296
vt 0.24752260130490472 0.38525678313076595
vt 0.24949724104461474 0.4369222429972073
vt 0.3447555179107705 0.4375
vt 0.3447555179107705 0.38579681880858296
vt 0.37302536026029 0.38525678313076595
vt 0.375 0.4369222429972073
vt 0.4072555179107705 0.4375
vt 0.4072555179107705 0.38579681880858296
vt 0.43552536026029 0.38525678313076595
vt 0.4375 0.4369222429972073
vt 0.5630027589553852 0.84375
vt 0.5630027589553852 0.792046818808583
vt 0.5912726013049048 0.791506783130766
vt 0.5932472410446148 0.8431722429972073
vt 0.4375 0.4375
vt 0.4375 0.38579681880858296
vt 0.46576984234951946 0.38525678313076595
vt 0.4677444820892295 0.4369222429972073
vt 0.25 0.4375
vt 0.25 0.38579681880858296
vt 0.27826984234951946 0.38525678313076595
vt 0.2802444820892295 0.4369222429972073
vt 0.5630027589553852 0.78125
vt 0.5630027589553852 0.729546818808583
vt 0.5912726013049048 0.729006783130766
vt 0.5932472410446148 0.7806722429972073
vt 0.2822555179107705 0.4375
vt 0.2822555179107705 0.38579681880858296
vt 0.31052536026029 0.38525678313076595
vt 0.3125 0.4369222429972073
vt 0.3760055179107705 0.4375
vt 0.3760055179107705 0.38579681880858296
vt 0.40427536026029 0.38525678313076595
vt 0.40625 0.4369222429972073
vt 0.5976880005766696 0.5625
vt 0.6523119994233304 0.5625
vt 0.6050087654706415 0.5898097897146393
vt 0.6050087654706415 0.8125
vt 0.6523119994233304 0.8398097897146392
vt 0.5976880005766696 0.8398097897146392
vt 0.5737580825970582 0.53125
vt 0.6210603485726593 0.5585614662772636
vt 0.5664396514273407 0.5585614662772636
vt 0.5292798948573196 0.34375
vt 0.5292798948573196 0.3983739988466608
vt 0.5019701051426804 0.35107076489397193
vt 0.6230307202657642 0.75
vt 0.6230307202657642 0.8046206971453187
vt 0.5957192797342358 0.7573146038158882
vt 0.49803073313863183 0.38231843116971753
vt 0.47071926686136817 0.4296206971453187
vt 0.4707192668613682 0.375
vt 0.5957201051426804 0.65625
vt 0.5957201051426804 0.6016260011533392
vt 0.6230298948573196 0.6089467660473111
vt 0.6449912345293585 0.7460597897146393
vt 0.5976880005766696 0.71875
vt 0.6523119994233304 0.71875
vt 0.5644692668613682 0.5233706971453187
vt 0.5644692668613682 0.46875
vt 0.5917807331386318 0.5160522659756012
vt 0.5957192797342358 0.8910560933294305
vt 0.6230307202657642 0.84375
vt 0.6230307202657642 0.8983706971453187
vt 0.5957201051426804 0.5160532339526889
vt 0.6230298948573196 0.46875
vt 0.6230298948573196 0.5233739988466608
vt 0.5976896514273407 0.96875
vt 0.6523103485726593 0.96875
vt 0.6050080825970582 0.9960614662772637
vn 0.499722453489577 -0.03331483023263849 0.865544679126923
vn 0 1 0
vn 0.8655446791269229 -0.03331483023263849 0.4997224534895771
vn 0 1 0
vn 0.9994449069791543 -0.03331483023263848 0
vn 0 1 0
vn 0.8655446791269229 -0.033314830232638495 -0.499722453489577
vn 0 1 0
vn 0.4997224534895773 -0.03331483023263847 -0.865544679126923
vn 0 1 0
vn 4.141108758362218e-16 -0.03331483023263846 -0.9994449069791543
vn 0 1 0
vn -0.4997224534895767 -0.03331483023263848 -0.8655446791269233
vn 0 1 0
vn -0.8655446791269231 -0.03331483023263844 -0.499722453489577
vn 0 1 0
vn -0.9994449069791543 -0.033314830232638454 -2.0705543791811106e-16
vn 0 1 0
vn -0.8655446791269231 -0.03331483023263847 0.4997224534895767
vn 0 1 0
vn -0.4997224534895771 -0.033314830232638475 0.865544679126923
vn 0 1 0
vn 0 -0.03331483023263849 0.9994449069791543
vn 0 1 0
vn -4.776906820583862e-16 0.020843510960044147 0.9997827504267407
vn -0.49989137521337046 0.020843510960044165 0.8658372601350347
vn -0.8658372601350347 0.020843510960044182 0.49989137521337057
vn -0.9997827504267407 0.020843510960044186 0
vn -0.8658372601350348 0.020843510960044172 -0.4998913752133707
vn -0.49989137521337046 0.020843510960044182 -0.8658372601350348
vn 0 0.020843510960044182 -0.9997827504267407
vn 0.49989137521337046 0.020843510960044186 -0.8658372601350347
vn 0.865837260135035 0.02084351096004415 -0.49989137521336985
vn 0.9997827504267407 0.020843510960044182 0
vn 0.8658372601350349 0.020843510960044186 0.4998913752133703
vn 0.49989137521336985 0.02084351096004415 0.8658372601350351
vn 0 -1 0
vn 0 -1 0
vn 0 1 0
vn 0 1 0
vn 0 1 0
vn 0 1 0
vn 0 1 0
vn 0 -1 0
vn 0 -1 0
vn 0 1 0
vn 0 1 0
vn 0 1 0
vn 0 -1 0
vn 0 -1 0
vn 0 -1 0
vn 0 -1 0
vn 0 -1 0
vn 0 -1 0
vn 0 -1 0
vn 0 1 0
vn 0 1 0
vn 0 -1 0
vn 0 -1 0
vn 0 -1 0
vn -4.821614243102285e-16 0.07120752493705274 0.9974615222615553
vn -0.4987307611307777 0.07120752493705276 0.8638270175760042
vn -0.8638270175760041 0.07120752493705282 0.4987307611307778
vn -0.9974615222615553 0.07120752493705275 0
vn -0.8638270175760041 0.07120752493705276 -0.4987307611307779
vn -0.4987307611307777 0.0712075249370528 -0.8638270175760041
vn 0 0.07120752493705275 -0.9974615222615553
vn 0.4987307611307777 0.07120752493705275 -0.8638270175760041
vn 0.8638270175760044 0.07120752493705286 -0.49873076113077713
vn 0.9974615222615554 0.07120752493705276 0
vn 0.8638270175760042 0.07120752493705274 0.49873076113077747
vn 0.498730761130777 0.0712075249370528 0.8638270175760046
vn 0 -1 0
vn 0 -1 0
vn 0 -1 0
vn 0 -1 0
vn 0 -1 0
vn 0 -1 0
vn 0 1 0
vn 0 -1 0
vn 0 -1 0
vn 0 -1 0
vn 0 -1 0
vn 0 -1 0
usemtl m_36657da0-7f99-ab3a-1fee-3aae022350b9
f 1/1/1 48/2/1 4/3/1 2/4/1
f 2/5/2 4/6/2 5/7/2 3/8/2
f 48/9/3 49/10/3 6/11/3 4/12/3
f 4/13/4 6/14/4 7/15/4 5/16/4
f 49/17/5 8/18/5 9/19/5 6/20/5
f 6/21/6 9/22/6 10/23/6 7/24/6
f 8/25/7 11/26/7 12/27/7 9/28/7
f 9/29/8 12/30/8 13/31/8 10/32/8
f 11/33/9 14/34/9 15/35/9 12/36/9
f 12/37/10 15/38/10 16/39/10 13/40/10
f 14/41/11 17/42/11 18/43/11 15/44/11
f 15/45/12 18/46/12 19/47/12 16/48/12
f 17/49/13 20/50/13 21/51/13 18/52/13
f 18/53/14 21/54/14 22/55/14 19/56/14
f 20/57/15 23/58/15 24/59/15 21/60/15
f 21/61/16 24/62/16 25/63/16 22/64/16
f 23/65/17 26/66/17 27/67/17 24/68/17
f 24/69/18 27/70/18 28/71/18 25/72/18
f 26/73/19 29/74/19 30/75/19 27/76/19
f 27/77/20 30/78/20 31/79/20 28/80/20
f 29/81/21 32/82/21 33/83/21 30/84/21
f 30/85/22 33/86/22 34/87/22 31/88/22
f 32/89/23 1/90/23 2/91/23 33/92/23
f 33/93/24 2/94/24 3/95/24 34/96/24
f 36/97/25 52/98/25 51/99/25 35/100/25
f 37/101/26 53/102/26 52/103/26 36/104/26
f 38/105/27 54/106/27 53/107/27 37/108/27
f 39/109/28 55/110/28 54/111/28 38/112/28
f 40/113/29 56/114/29 55/115/29 39/116/29
f 41/117/30 57/118/30 56/119/30 40/120/30
f 42/121/31 58/122/31 57/123/31 41/124/31
f 43/125/32 59/126/32 58/127/32 42/128/32
f 44/129/33 60/130/33 59/131/33 43/132/33
f 45/133/34 61/134/34 60/135/34 44/136/34
f 46/137/35 62/138/35 61/139/35 45/140/35
f 35/141/36 51/142/36 62/143/36 46/144/36
f 47/145/37 41/146/37 42/147/37
f 43/148/38 47/149/38 42/150/38
f 47/151/39 44/152/39 43/153/39
f 47/154/40 45/155/40 44/156/40
f 47/157/41 46/158/41 45/159/41
f 47/160/42 35/161/42 46/162/42
f 47/163/43 36/164/43 35/165/43
f 37/166/44 47/167/44 36/168/44
f 38/169/45 47/170/45 37/171/45
f 47/172/46 39/173/46 38/174/46
f 47/175/47 40/176/47 39/177/47
f 47/178/48 41/179/48 40/180/48
f 20/181/49 50/182/49 23/183/49
f 23/184/50 50/185/50 26/186/50
f 50/187/51 29/188/51 26/189/51
f 50/190/52 32/191/52 29/192/52
f 50/193/53 1/194/53 32/195/53
f 50/196/54 48/197/54 1/198/54
f 50/199/55 49/200/55 48/201/55
f 8/202/56 50/203/56 49/204/56
f 11/205/57 50/206/57 8/207/57
f 50/208/58 14/209/58 11/210/58
f 50/211/59 17/212/59 14/213/59
f 50/214/60 20/215/60 17/216/60
f 19/217/61 51/218/61 52/219/61 16/220/61
f 16/221/62 52/222/62 53/223/62 13/224/62
f 13/225/63 53/226/63 54/227/63 10/228/63
f 10/229/64 54/230/64 55/231/64 7/232/64
f 7/233/65 55/234/65 56/235/65 5/236/65
f 5/237/66 56/238/66 57/239/66 3/240/66
f 3/241/67 57/242/67 58/243/67 34/244/67
f 34/245/68 58/246/68 59/247/68 31/248/68
f 31/249/69 59/250/69 60/251/69 28/252/69
f 28/253/70 60/254/70 61/255/70 25/256/70
f 25/257/71 61/258/71 62/259/71 22/260/71
f 22/261/72 62/262/72 51/263/72 19/264/72
f 62/265/73 63/266/73 61/267/73
f 51/268/74 63/269/74 62/270/74
f 52/271/75 63/272/75 51/273/75
f 53/274/76 63/275/76 52/276/76
f 54/277/77 63/278/77 53/279/77
f 55/280/78 63/281/78 54/282/78
f 63/283/79 56/284/79 55/285/79
f 57/286/80 63/287/80 56/288/80
f 58/289/81 63/290/81 57/291/81
f 59/292/82 63/293/82 58/294/82
f 60/295/83 63/296/83 59/297/83
f 61/298/84 63/299/84 60/300/84