# Made in Blockbench 4.7.4
mtllib wine.mtl

o cylinder
v 0 0 0
v 0.02512023679041775 0 0.09375
v 0.02512023679041775 0.5 0.09375
v 0.06862976320958224 0 0.06862976320958225
v 0.06862976320958224 0.5 0.06862976320958225
v 0.09375 0 0.02512023679041775
v 0.09375 0.5 0.02512023679041775
v 0.09375 0 -0.02512023679041776
v 0.09375 0.5 -0.02512023679041776
v 0.06862976320958225 0 -0.06862976320958224
v 0.06862976320958225 0.5 -0.06862976320958224
v 0.025120236790417777 0 -0.09374999999999999
v 0.025120236790417777 0.5 -0.09374999999999999
v -0.025120236790417715 0 -0.09375
v -0.025120236790417715 0.5 -0.09375
v -0.06862976320958224 0 -0.06862976320958225
v -0.06862976320958224 0.5 -0.06862976320958225
v -0.09375 0 -0.02512023679041774
v -0.09375 0.5 -0.02512023679041774
v -0.09375 0 0.025120236790417708
v -0.09375 0.5 0.025120236790417708
v -0.06862976320958225 0 0.06862976320958222
v -0.06862976320958225 0.5 0.06862976320958222
v -0.025120236790417742 0 0.09375
v -0.025120236790417742 0.5 0.09375
v 0.009210753489819852 0.5625 -0.034374999999999996
v -0.00921075348981983 0.5625 -0.034375
v -0.025164246510180156 0.5625 -0.02516424651018016
v -0.034375 0.5625 -0.009210753489819838
v -0.034375 0.5625 0.009210753489819827
v -0.02516424651018016 0.5625 0.02516424651018015
v -0.00921075348981984 0.5625 0.034375
v 0.009210753489819841 0.5625 0.034375
v 0.034375 0.5625 0.009210753489819841
v 0.034375 0.5625 -0.009210753489819846
v 0.02516424651018016 0.5625 -0.025164246510180156
v 0.025164246510180156 0.5625 0.02516424651018016
v 0.009210753489819852 0.5625 -0.034374999999999996
v -0.00921075348981983 0.5625 -0.034375
v -0.025164246510180156 0.5625 -0.02516424651018016
v -0.034375 0.5625 -0.009210753489819838
v -0.034375 0.5625 0.009210753489819827
v -0.02516424651018016 0.5625 0.02516424651018015
v -0.00921075348981984 0.5625 0.034375
v 0.009210753489819841 0.5625 0.034375
v 0.034375 0.5625 0.009210753489819841
v 0.034375 0.5625 -0.009210753489819846
v 0.02516424651018016 0.5625 -0.025164246510180156
v 0.025164246510180156 0.5625 0.02516424651018016
v -0.025164246510180156 0.5625 -0.02516424651018016
v -0.00921075348981983 0.5625 -0.034375
v -0.034375 0.5625 -0.009210753489819838
v -0.02516424651018016 0.5625 0.02516424651018015
v -0.034375 0.5625 0.009210753489819827
v -0.00921075348981984 0.5625 0.034375
v 0.009210753489819841 0.5625 0.034375
v 0.025164246510180156 0.5625 0.02516424651018016
v 0.034375 0.5625 0.009210753489819841
v 0.034375 0.5625 -0.009210753489819846
v 0.02516424651018016 0.5625 -0.025164246510180156
v 0.009210753489819852 0.5625 -0.034374999999999996
v -0.025164246510180156 0.7625000000000002 -0.02516424651018016
v -0.00921075348981983 0.7625000000000002 -0.034375
v -0.034375 0.7625000000000002 -0.009210753489819838
v -0.02516424651018016 0.7625000000000002 0.02516424651018015
v -0.034375 0.7625000000000002 0.009210753489819827
v -0.00921075348981984 0.7625000000000002 0.034375
v 0.009210753489819841 0.7625000000000002 0.034375
v 0.025164246510180156 0.7625000000000002 0.02516424651018016
v 0.034375 0.7625000000000002 0.009210753489819841
v 0.034375 0.7625000000000002 -0.009210753489819846
v 0.02516424651018016 0.7625000000000002 -0.025164246510180156
v 0.009210753489819852 0.7625000000000002 -0.034374999999999996
v 6.360652745248293e-18 0.7625000000000002 0
vt 0.47302667480526067 0.1875
vt 0.48602837855719705 0.23603086602729628
vt 0.38897162144280295 0.23603086602729628
vt 0.125 0
vt 0.1875 0
vt 0.1875 0.5
vt 0.125 0.5
vt 0.861028378557197 0.5625
vt 0.8480266748052607 0.6110308660272963
vt 0.763971621442803 0.5625000000000001
vt 0.375 0.5
vt 0.4375 0.5
vt 0.4375 1
vt 0.375 1
vt 0.9105266748052607 0.75
vt 0.923528378557197 0.7985258910870978
vt 0.826471621442803 0.7985258910870978
vt 0 0.5
vt 0.0625 0.5
vt 0.0625 1
vt 0 1
vt 0.8194845669863519 0.8880017037519363
vt 0.8680154330136481 0.875
vt 0.8680154330136481 0.9720567571143941
vt 0.4375 0.5
vt 0.5 0.5
vt 0.5 1
vt 0.4375 1
vt 0.7569845669863519 0.4375
vt 0.8055154330136481 0.45050170375193643
vt 0.7569845669863519 0.5345567571143941
vt 0.5 0.5
vt 0.5625 0.5
vt 0.5625 1
vt 0.5 1
vt 0.8194870544564511 0.6380017037519364
vt 0.8680129455435489 0.625
vt 0.8680129455435489 0.7220567571143941
vt 0.1875 0.5
vt 0.25 0.5
vt 0.25 1
vt 0.1875 1
vt 0.6389703777236908 0.2360296222763092
vt 0.6519767230801409 0.1875
vt 0.7360296222763092 0.2360296222763092
vt 0 0
vt 0.0625 0
vt 0.0625 0.5
vt 0 0.5
vt 0.513971621442803 0.23603086602729628
vt 0.5269733251947394 0.1875
vt 0.611028378557197 0.23603086602729628
vt 0.3125 0.5
vt 0.375 0.5
vt 0.375 1
vt 0.3125 1
vt 0.8394733251947394 0.8610258910870979
vt 0.826471621442803 0.8125000000000001
vt 0.923528378557197 0.8125
vt 0.0625 0.5
vt 0.125 0.5
vt 0.125 1
vt 0.0625 1
vt 0.8055148111381546 0.2845592445526185
vt 0.7569851888618454 0.27155289919616843
vt 0.8055148111381546 0.1875
vt 0.25 0.5
vt 0.3125 0.5
vt 0.3125 1
vt 0.25 1
vt 0.8055154330136481 0.4095567571143941
vt 0.7569845669863519 0.3965550533624578
vt 0.8055154330136481 0.3125
vt 0.0625 0
vt 0.125 0
vt 0.125 0.5
vt 0.0625 0.5
vt 0.4305129455435489 0.14655505336245778
vt 0.3819870544564511 0.1595567571143941
vt 0.3819870544564511 0.0625
vt 0.125 0.5
vt 0.1875 0.5
vt 0.1875 1
vt 0.125 1
vt 0.6875 0.6748573546922937
vt 0.75 0.6668854875780021
vt 0.75 0.7460130746703841
vt 0.7122943117513422 0.75
vt 0.75 0.41688548757800215
vt 0.75 0.49601307467038414
vt 0.7122943117513422 0.5
vt 0.6875 0.4248573546922937
vt 0.375 0.16688548757800215
vt 0.375 0.24601307467038414
vt 0.33729431175134217 0.25
vt 0.3125 0.1748573546922937
vt 0.75 0.9168854875780021
vt 0.75 0.9960130746703841
vt 0.7122943117513422 1
vt 0.6875 0.9248573546922937
vt 0.3125 0.16688548757800215
vt 0.3125 0.24601307467038414
vt 0.27479431175134217 0.25
vt 0.25 0.1748573546922937
vt 0.75 0.29188548757800215
vt 0.75 0.37101307467038414
vt 0.7122943117513422 0.375
vt 0.6875 0.2998573546922937
vt 0.75 0.5418854875780021
vt 0.75 0.6210130746703841
vt 0.7122943117513422 0.625
vt 0.6875 0.5498573546922937
vt 0.8125 0.7918854875780021
vt 0.8125 0.8710130746703841
vt 0.7747943117513422 0.875
vt 0.75 0.7998573546922937
vt 0.8125 0.6668854875780021
vt 0.8125 0.7460130746703841
vt 0.7747943117513422 0.75
vt 0.75 0.6748573546922937
vt 0.75 0.7918854875780021
vt 0.75 0.8710130746703841
vt 0.7122943117513422 0.875
vt 0.6875 0.7998573546922937
vt 0.25 0.16688548757800215
vt 0.25 0.24601307467038414
vt 0.21229431175134217 0.25
vt 0.1875 0.1748573546922937
vt 0.8125 0.9168854875780021
vt 0.8125 0.9960130746703841
vt 0.7747943117513422 1
vt 0.75 0.9248573546922937
vt 0.25 0.25
vt 0.25 0.5
vt 0.1875 0.5
vt 0.1875 0.25
vt 0.5625 1
vt 0.5625 0.75
vt 0.625 0.75
vt 0.625 1
vt 0.625 0.75
vt 0.625 0.5
vt 0.6875 0.5
vt 0.6875 0.75
vt 0.3125 0.5
vt 0.25 0.5
vt 0.25 0.25
vt 0.3125 0.25
vt 0.6875 0.5
vt 0.625 0.5
vt 0.625 0.25
vt 0.6875 0.25
vt 0.5 0.25
vt 0.5 0.5
vt 0.4375 0.5
vt 0.4375 0.25
vt 0.375 0.25
vt 0.375 0.5
vt 0.3125 0.5
vt 0.3125 0.25
vt 0.5625 0.25
vt 0.5625 0.5
vt 0.5 0.5
vt 0.5 0.25
vt 0.625 0.25
vt 0.625 0.5
vt 0.5625 0.5
vt 0.5625 0.25
vt 0.4375 0.5
vt 0.375 0.5
vt 0.375 0.25
vt 0.4375 0.25
vt 0.6875 0.75
vt 0.6875 1
vt 0.625 1
vt 0.625 0.75
vt 0.625 0.75
vt 0.5625 0.75
vt 0.5625 0.5
vt 0.625 0.5
vt 0.7421875 0.1875
vt 0.6953125 0.17493749999999997
vt 0.7421875 0.16237500000000005
vt 0.479625 0.1875
vt 0.4453125 0.15318750000000003
vt 0.4921875 0.16574999999999995
vt 0.82659375 0.546875
vt 0.83915625 0.5
vt 0.86090625 0.5125625
vt 0.828125 0.265625
vt 0.8406875 0.3125
vt 0.8155625 0.3125
vt 0.53584375 0.125
vt 0.54840625 0.171875
vt 0.51409375 0.13756250000000003
vt 0.8671875 0.47181249999999997
vt 0.8203125 0.45925000000000005
vt 0.832875 0.4375
vt 0.8046875 0.16881250000000003
vt 0.7578125 0.18137499999999995
vt 0.7578125 0.15625
vt 0.6171875 0.125
vt 0.582875 0.15931249999999997
vt 0.5703125 0.13756250000000003
vt 0.86090625 0.375
vt 0.84834375 0.421875
vt 0.82659375 0.40931249999999997
vt 0.828125 0.1875
vt 0.8406875 0.234375
vt 0.8155625 0.234375
vt 0.6328125 0.125
vt 0.6796875 0.13756250000000003
vt 0.667125 0.15931249999999997
vt 0.82659375 0.3125
vt 0.86090625 0.34681249999999997
vt 0.83915625 0.359375
vn 0 -1 0
vn 0.5 0 0.8660254037844387
vn 0 -1 0
vn 0.8660254037844386 0 0.5000000000000001
vn 0 -1 0
vn 1 0 0
vn 0 -1 0
vn 0.8660254037844386 0 -0.5000000000000001
vn 0 -1 0
vn 0.5000000000000001 0 -0.8660254037844386
vn 0 -1 0
vn 2.7622724904225857e-16 0 -1
vn 0 -1 0
vn -0.49999999999999967 0 -0.8660254037844388
vn 0 -1 0
vn -0.8660254037844387 0 -0.49999999999999994
vn 0 -1 0
vn -1 0 0
vn 0 -1 0
vn -0.8660254037844389 0 0.4999999999999998
vn 0 -1 0
vn -0.5000000000000003 0 0.8660254037844387
vn 0 -1 0
vn 0 0 1
vn -0.7249994335944138 0.6887494619146931 0
vn -0.6278679272220917 0.688749461914693 0.36249971679720666
vn -0.36249971679720716 0.688749461914693 0.6278679272220915
vn 0 0.6887494619146931 0.7249994335944137
vn 0.3624997167972068 0.6887494619146931 0.6278679272220917
vn 0.6278679272220915 0.688749461914693 0.36249971679720716
vn 0.7249994335944138 0.6887494619146932 0
vn 0.6278679272220916 0.688749461914693 -0.3624997167972069
vn 0.3624997167972067 0.6887494619146932 -0.6278679272220916
vn 2.73088089680428e-16 0.6887494619146931 -0.7249994335944139
vn -0.36249971679720655 0.6887494619146929 -0.6278679272220918
vn -0.6278679272220915 0.6887494619146931 -0.3624997167972071
vn 1 0 0
vn -0.8660254037844386 0 -0.5000000000000001
vn -0.49999999999999994 0 -0.8660254037844387
vn 0 0 -1
vn 0.5000000000000003 0 -0.8660254037844385
vn 0.8660254037844389 0 -0.4999999999999999
vn 1 0 0
vn 0.8660254037844387 0 0.49999999999999994
vn 0.4999999999999997 0 0.8660254037844388
vn 3.766735214212617e-16 0 -1
vn -0.49999999999999994 0 0.8660254037844387
vn 0.8660254037844386 0 -0.5000000000000001
vn 0 1 0
vn 0 1 0
vn 0 -1 0
vn 0 1 0
vn 0 -1 0
vn 0 -1 0
vn 0 -1 0
vn 0 -1 0
vn 0 -1 0
vn 0 -1 0
vn 0 -1 0
vn 0 -1 0
usemtl m_eae2c389-5776-9d23-16a8-bef4f6191c29
f 4/1/1 2/2/1 1/3/1
f 2/4/2 4/5/2 5/6/2 3/7/2
f 6/8/3 4/9/3 1/10/3
f 4/11/4 6/12/4 7/13/4 5/14/4
f 8/15/5 6/16/5 1/17/5
f 6/18/6 8/19/6 9/20/6 7/21/6
f 10/22/7 8/23/7 1/24/7
f 8/25/8 10/26/8 11/27/8 9/28/8
f 12/29/9 10/30/9 1/31/9
f 10/32/10 12/33/10 13/34/10 11/35/10
f 14/36/11 12/37/11 1/38/11
f 12/39/12 14/40/12 15/41/12 13/42/12
f 16/43/13 14/44/13 1/45/13
f 14/46/14 16/47/14 17/48/14 15/49/14
f 18/50/15 16/51/15 1/52/15
f 16/53/16 18/54/16 19/55/16 17/56/16
f 20/57/17 18/58/17 1/59/17
f 18/60/18 20/61/18 21/62/18 19/63/18
f 22/64/19 20/65/19 1/66/19
f 20/67/20 22/68/20 23/69/20 21/70/20
f 24/71/21 22/72/21 1/73/21
f 22/74/22 24/75/22 25/76/22 23/77/22
f 2/78/23 24/79/23 1/80/23
f 24/81/24 2/82/24 3/83/24 25/84/24
f 19/85/25 21/86/25 30/87/25 29/88/25
f 23/89/26 31/90/26 30/91/26 21/92/26
f 25/93/27 32/94/27 31/95/27 23/96/27
f 3/97/28 33/98/28 32/99/28 25/100/28
f 5/101/29 37/102/29 33/103/29 3/104/29
f 7/105/30 34/106/30 37/107/30 5/108/30
f 9/109/31 35/110/31 34/111/31 7/112/31
f 11/113/32 36/114/32 35/115/32 9/116/32
f 13/117/33 26/118/33 36/119/33 11/120/33
f 15/121/34 27/122/34 26/123/34 13/124/34
f 17/125/35 28/126/35 27/127/35 15/128/35
f 19/129/36 29/130/36 28/131/36 17/132/36
f 35/133/37 71/134/37 70/135/37 34/136/37
f 70/137/38 34/138/38 37/139/38 69/140/38
f 69/141/39 37/142/39 33/143/39 68/144/39
f 67/145/40 68/146/40 33/147/40 32/148/40
f 65/149/41 67/150/41 32/151/41 31/152/41
f 30/153/42 66/154/42 65/155/42 31/156/42
f 29/157/43 64/158/43 66/159/43 30/160/43
f 28/161/44 62/162/44 64/163/44 29/164/44
f 27/165/45 63/166/45 62/167/45 28/168/45
f 63/169/46 73/170/46 26/171/46 27/172/46
f 36/173/47 72/174/47 73/175/47 26/176/47
f 72/177/48 71/178/48 35/179/48 36/180/48
f 71/181/49 74/182/49 70/183/49
f 72/184/50 74/185/50 71/186/50
f 74/187/51 73/188/51 72/189/51
f 74/190/52 73/191/52 63/192/52
f 63/193/53 74/194/53 62/195/53
f 74/196/54 64/197/54 62/198/54
f 74/199/55 66/200/55 64/201/55
f 74/202/56 65/203/56 66/204/56
f 74/205/57 67/206/57 65/207/57
f 74/208/58 68/209/58 67/210/58
f 74/211/59 70/212/59 69/213/59
f 74/214/60 69/215/60 68/216/60